<svg width="3930" height="600" viewBox="0 0 3930 600" fill="none" xmlns="http://www.w3.org/2000/svg">
<path d="M589.79 303.2C589.79 466.96 457.94 599.72 295.29 599.72C132.64 599.72 0.799988 467 0.799988 303.2C0.799988 139.4 132.65 6.69 295.29 6.69C457.93 6.69 589.79 139.44 589.79 303.2Z" fill="#5E8B7E"/>
<path d="M912.86 303.2C912.86 457.36 846.93 582.32 765.61 582.32C684.29 582.32 618.36 457.32 618.36 303.2C618.36 149.08 684.29 24.08 765.61 24.08C846.93 24.08 912.86 149.08 912.86 303.2Z" fill="#5E8B7E"/>
<path d="M1045 303.2C1045 441.32 1021.81 553.28 993.21 553.28C964.61 553.28 941.42 441.28 941.42 303.2C941.42 165.12 964.61 53.12 993.22 53.12C1021.83 53.12 1045 165.09 1045 303.2Z" fill="#5E8B7E"/>
<path d="M1857.77 32.4L1858.59 32.22V25.87H1691.11L1535.6 391.37L1380.09 25.87H1199.61V32.22L1200.42 32.4C1230.99 39.3 1246.51 49.59 1246.51 86.7V521.15C1246.51 558.26 1230.93 568.55 1200.36 575.45L1199.55 575.63V582H1322V575.65L1321.19 575.47C1290.62 568.57 1275.1 558.28 1275.1 521.17V111.9L1474.87 582H1486.2L1691.79 98.79V531.9C1689.17 561.21 1673.79 570.26 1646.11 576.51L1645.29 576.7V583H1858.59V576.7L1857.77 576.51C1830.06 570.26 1814.31 561.21 1811.69 531.9L1811.55 86.7H1811.69C1811.69 49.59 1827.21 39.3 1857.77 32.4V32.4ZM1955.2 320.2C1958.69 242.14 1986.72 185.8 2033.76 184.83C2048.27 185.07 2060.44 189.83 2069.9 198.99C2090 218.5 2099.45 259.27 2097.99 320.2H1955.2ZM1953.09 342.2H2203.09V341.15C2202.38 281.46 2185.09 235.03 2151.75 203.15C2122.93 175.6 2080.26 160.44 2035.44 160.44H2034.44C2011.18 160.44 1982.65 166.08 1962.35 176.3C1939.24 187 1918.86 203 1901.9 224C1874.6 257.83 1858.06 303.55 1854.04 354.93C1853.91 356.47 1853.8 358.01 1853.69 359.55C1853.58 361.09 1853.51 362.47 1853.44 363.94C1853.3 366.69 1853.19 369.45 1853.13 372.22C1853.03 376.66 1853 381.13 1853.08 385.63C1855.79 502 1918.65 595 2030.3 595C2128.3 595 2185.37 523.36 2199.6 427.2L2192.41 424.67C2167.41 476.35 2122.51 507.67 2071.41 503.85C2001.65 498.63 1948.21 427.9 1953.06 342.22L1953.09 342.2ZM2485.75 499.9C2477.55 519.35 2460.44 530.05 2437.51 530.05C2414.58 530.05 2393.62 514.31 2378.73 485.71C2362.73 455.01 2354.31 411.61 2354.31 360.2C2354.31 253.2 2387.59 183.99 2439.1 183.99C2460.67 183.99 2477.65 194.69 2485.75 213.36V499.9ZM2651.59 576.18C2621.02 568.95 2605.5 558.18 2605.5 519.18V0.279999L2419.77 55V61.7L2420.91 61.61C2446.53 59.54 2463.91 63.08 2474 72.4C2481.9 79.7 2485.75 90.9 2485.75 106.66V177.8C2467.44 166.11 2445.66 160.42 2419.23 160.42C2365.63 160.42 2316.64 182.99 2281.31 223.98C2244.48 266.7 2225.01 325.08 2225.01 392.79C2225 513.72 2284.53 595 2373.13 595C2424.96 595 2466.66 566.6 2485.75 518.7V583H2652.4V576.34L2651.59 576.18ZM2810.88 70.85C2810.88 33.09 2782.41 4.61 2744.64 4.61C2707.05 4.61 2677.64 33.71 2677.64 70.85C2677.64 107.99 2707.08 137.09 2744.64 137.09C2782.41 137.09 2810.88 108.61 2810.88 70.85V70.85ZM2854.72 576.18C2824.15 568.95 2808.63 558.18 2808.63 519.18H2808.5V161.65L2641.84 209.5V216L2642.84 216.09C2678.9 219.3 2688.77 231.72 2688.77 273.86V583H2855.57V576.34L2854.72 576.18ZM3281.77 576.18C3251.2 568.95 3235.68 558.18 3235.68 519.18V161.65L3077 207.92V214.44L3077.94 214.54C3107.42 217.64 3115.94 230.77 3115.94 273.1V499.1C3106.11 518.55 3087.67 530.1 3065.33 530.88C3029.1 530.88 3009.15 506.41 3009.15 461.98V161.66L2842.49 209.51V216L2843.49 216.09C2879.55 219.29 2889.43 231.71 2889.43 273.86V465.13C2889.34 478.482 2890.51 491.814 2892.9 504.95L2895.9 518C2910.01 568.56 2946.98 595 3004.9 595C3053.96 595 3096.96 564.63 3115.9 517.11V583.11H3282.56V576.45L3281.77 576.18ZM3929.2 583V576.33L3928.39 576.14C3895.22 568.49 3882.3 554.07 3882.3 524.71V281.51C3882.3 205.68 3839.71 160.42 3768.37 160.42C3716.37 160.42 3672.52 190.47 3655.64 237.28C3642.23 187.68 3603.64 160.42 3546.58 160.42C3496.46 160.42 3457.18 186.87 3440.33 231.55V161.68L3273.67 207.57V214.11L3274.67 214.2C3310.3 217.36 3320.6 230.14 3320.6 271.2V583H3476.1V576.34L3475.28 576.14C3448.82 569.92 3440.28 558.58 3440.28 529.48V250.72C3447.28 234.37 3461.39 215 3489.28 215C3523.92 215 3541.48 239 3541.48 286.28V583H3697.02V576.34L3696.2 576.14C3669.74 569.92 3661.2 558.58 3661.2 529.48V281.48C3661.27 272.207 3660.53 262.946 3659 253.8C3666.42 236.03 3681.34 215 3710.37 215C3745.5 215 3762.57 238.31 3762.57 286.28V583H3929.2Z" fill="#5E8B7E"/>
</svg>
